<svg width="16" height="16" xmlns="http://www.w3.org/2000/svg"><path d="M5.3 8c.423-.54.937-1.11 1.523-1.7 2.295-2.309 4.84-2.446 5.082-2.202.242.245.09 2.77-2.205 5.08A19.084 19.084 0 0 1 8 10.714v1.62c0 .666.015.688-.406 1-.225.166-1.194.961-2.234 1.597-.255.157-.466.027-.304-.202.44-.62.756-1.172.95-1.659.178-.446.177-.842-.003-1.189-.663.211-1.218.149-1.626-.249-.411-.401-.472-.96-.253-1.633-.348-.182-.746-.184-1.195-.005-.487.194-1.04.51-1.659.949-.229.162-.358-.048-.202-.304.636-1.04 1.432-2.008 1.598-2.234.312-.42.333-.405 1-.405H5.3zm-2.05 3.605c.139.14-1.72.956-1.72 2.867 1.91 0 2.726-1.86 2.866-1.72.14.14-.31 1.22-1.074 1.984-.764.765-1.793 1.265-3.322 1.265 0-1.529.5-2.558 1.265-3.322.764-.765 1.845-1.213 1.984-1.074zM.7 8c-.004.322-.404.348-.4 0 .048-4.418 2.992-8 7.696-8s8 3.3 8 8-3.582 7.668-8 7.698c-.15.001-.217-.098-.217-.197 0-.1.066-.2.217-.2C11.694 15.308 14.798 12 14.798 8s-2.802-6.804-6.802-6.804C3.996 1.196.752 3.906.7 8z" fill="#999"/></svg>
