<svg xmlns="http://www.w3.org/2000/svg" width="120" height="50" viewBox="0 0 120 50"><path d="M69.18 16.86c-.538 0-1.045.088-1.52.265-.475.175-.894.447-1.254.814-.362.367-.644.832-.85 1.39-.207.56-.312 1.224-.312 1.99l3.037.367c0-.382.03-.696.09-.94.063-.245.138-.437.222-.575.084-.138.18-.23.29-.276.107-.047.205-.07.298-.07.26 0 .44.116.54.346.1.23.15.453.15.668 0 .383-.028.738-.08 1.068-.055.33-.18.678-.38 1.045l-3.935 7.29V33h7.36v-3.016h-3.68l2.9-5.494c.352-.673.605-1.27.76-1.793.152-.52.23-1.14.23-1.86 0-1.21-.305-2.178-.91-2.898-.605-.72-1.59-1.08-2.955-1.08zm-44.92.138L20 17v16h4.053c.813 0 1.537-.17 2.174-.506.637-.337 1.1-.956 1.392-1.86.166-.49.262-1.226.284-2.208.023-.98.035-2.13.035-3.45 0-1.32-.013-2.493-.036-3.527-.023-1.037-.102-1.8-.24-2.29-.215-.782-.598-1.337-1.148-1.666-.552-.33-1.304-.496-2.256-.496zM30 17v16h3.13v-6.23h.62L35.64 33h3.196l-2.3-6.94c.597-.414 1.042-.968 1.333-1.658.29-.69.437-1.58.437-2.666 0-.873-.11-1.61-.332-2.216-.222-.606-.533-1.098-.932-1.473-.397-.375-.875-.645-1.426-.805-.553-.162-1.16-.24-1.818-.24L30 17zm10 0v16h3.13V17H40zm4.52 0l3.035 16h3.957l3.058-16h-3.404l-.965 6.438-.575 4.482h-.137l-.576-4.53-.967-6.39H44.52zM56 17v16l7.34-.002v-3.01h-4.21v-3.61h3.82v-3.01h-3.82v-3.38h4.21V17H56zm25 0v16h3.13v-6.23h.62L86.64 33h3.196l-2.3-6.94c.597-.414 1.042-.968 1.333-1.658.29-.69.437-1.58.437-2.666 0-.873-.11-1.61-.332-2.216-.222-.606-.533-1.098-.932-1.473-.397-.375-.875-.645-1.426-.805-.553-.162-1.16-.24-1.818-.24L81 17zm9.826 0v12.086c0 2.702 1.358 4.053 4.078 4.053 1.35 0 2.375-.332 3.065-.992.69-.66 1.036-1.682 1.036-3.062V17h-3.18v12.156c0 .367-.087.624-.265.77-.175.147-.396.22-.656.22s-.484-.073-.668-.22c-.185-.146-.275-.403-.275-.77V17h-3.134zM33.13 19.99h.573c.476 0 .863.14 1.162.426.3.283.45.733.45 1.346 0 .414-.045.747-.137 1-.092.253-.22.456-.38.61-.16.152-.342.256-.542.31-.2.054-.415.08-.645.08h-.48V19.99zm51 0h.573c.476 0 .863.14 1.162.426.3.283.45.733.45 1.346 0 .414-.045.747-.137 1-.092.253-.22.456-.38.61-.16.152-.342.256-.542.31-.2.054-.415.08-.645.08h-.48V19.99zm-61.023.022h.582c.487 0 .805.12.95.355.147.238.22.58.22 1.024v7.22c0 .46-.073.805-.22 1.035-.145.23-.463.345-.953.345h-.582l.002-9.978zm52.192 9.54V33h3.104v-3.447H75.3z" fill="#fff"/></svg>
