<svg viewBox="0 0 173 32" xmlns="http://www.w3.org/2000/svg"><path d="m15.861 1.919c-1.972 0-3.846.411-5.547 1.146l-3.069-3.065h-.007c-3.24 1.419-5.837 4.029-7.238 7.28l3.074 3.071-.002.003c-.742 1.704-1.184 3.56-1.184 5.538 0 7.72 6.255 13.974 13.973 13.974 7.715 0 13.972-6.256 13.972-13.974 0-7.716-6.256-13.973-13.972-13.973" fill="#00b0ea"/><path d="m14.437 21.696c1.4-3.251 3.999-5.861 7.238-7.281h.002l-11.361-11.344-.005-.001c-3.242 1.42-5.839 4.029-7.239 7.282z" fill="#15374c"/><path d="m22.489 18.29c-1.882.824-3.39 2.343-4.205 4.229l5.306 1.097z" fill="#15374c"/><g fill="#fff"><path d="m22.489 18.292c-.427-2.037-.812-3.876-.812-3.876l-.004.001c-3.238 1.42-5.836 4.029-7.237 7.28l3.848.822c.817-1.88 2.328-3.405 4.205-4.227"/><path d="m49.787 7.121h2.409v16.083h-2.409z"/><path d="m82.317 22.943c0 2.181-.845 3.093-2.18 3.093v1.922c3.809 0 4.589-2.185 4.589-5.666v-15.171h-2.41z"/><path d="m62.714 14.806c-.54 1.784-1.041 3.627-1.239 4.764-.173-1.168-.996-3.428-1.398-4.764l-2.443-7.685h-2.311l5.144 16.083h1.754l4.979-16.083h-2.112z"/><path d="m78.094 21.252h-.002v-.031h-5.728l.006-5.276h4.491v-1.986h-4.491v-4.853h5.314v-1.988l-7.723.003v16.084l8.131.003v-.003h.006z"/><path d="m114.328 17.373c0 2.896-.911 4.232-2.965 4.232-2.051 0-2.961-1.338-2.961-4.232v-10.252h-2.409v9.33c0 4.814 1.226 7.175 5.353 7.175 4.357 0 5.352-2.733 5.352-7.127v-9.378h-2.368z"/><path d="m154.641 7.121-5.308 16.083h2.112l1.104-3.354h5.93l1.135 3.354h2.312l-5.469-16.083zm3.181 10.804h-4.637l.797-2.405c.603-1.854 1.271-4.346 1.498-5.479.201 1.11 1.039 4.026 1.528 5.479z"/><path d="m95.523 7.121c-4.432 0-6.774 3.224-6.774 8.236 0 5.014 2.344 8.269 6.774 8.269 4.424 0 6.771-3.255 6.771-8.269.002-5.012-2.347-8.236-6.771-8.236m0 14.386c-2.703 0-4.201-2.18-4.201-6.15s1.498-6.146 4.201-6.146c2.701 0 4.199 2.175 4.199 6.146.001 3.971-1.497 6.15-4.199 6.15"/><path d="m131.305 12.037c0-3.743-2.965-4.916-6.936-4.916h-2.816v16.083h2.411v-6.052h1.461c.642 0 1.204-.055 1.204-.055l2.885 6.105h2.569l-3.229-6.854c1.61-.84 2.451-2.35 2.451-4.311m-5.828 3.125h-1.513v-6.01h1.513c2.246 0 3.418 1.226 3.418 3.113s-1.238 2.897-3.418 2.897"/><path d="m144.182 11.887c0 2.084.045 5.899.145 6.88-.436-.938-.857-1.789-1.438-2.697l-5.803-8.949h-1.4v16.083h2.084v-5.8c0-3.301-.115-5.185-.211-5.915.26.619 1.127 2.103 1.551 2.756l5.791 8.958h1.369v-16.082h-2.088z"/><path d="m46.27 21.221h-5.043v-14.1h-2.412v16.084h7.455z"/><path d="m167.395 21.221v-14.1h-2.411v16.084h7.051v-1.986z"/></g></svg>
