<svg width="79" height="21" xmlns="http://www.w3.org/2000/svg"><g fill="none" fill-rule="evenodd"><path fill="#92CFAE" d="M0 0v19.6L19.6 0z"/><path fill="#2A8288" d="M1.4 21H21V1.4z"/><path d="M32.01 10.045c2.279 0 3.49-1.116 3.49-3.201v-.118c0-2.232-1.27-3.113-3.49-3.113h-2.366v6.432h2.366zM25 0h7.125C37.145 0 40 2.261 40 6.697v.117c0 4.435-3.029 6.55-7.731 6.55h-2.625V21H25V0zM49.245 17.387c2.236 0 3.368-.998 3.368-2.908v-.117c0-1.88-1.132-2.908-3.48-2.908h-2.605v5.933h2.717zm.17 3.613H42V0h13.189v3.7h-8.632l-.029 4.406h3.029c4.67 0 7.443 2.086 7.443 6.285v.118C57 18.621 54.425 21 49.415 21zM60.375.03h4.876v9.033L72.776 0h5.178l-8.519 9.943L78.375 21h-5.69l-7.434-9.415V21h-4.876z" fill="#FFF"/></g></svg>