<svg xmlns="http://www.w3.org/2000/svg" width="345" height="64" preserveAspectRatio="xMidYMid"><path fill="#141313" fill-rule="evenodd" d="M345 50.12v1.86h-19v-1.86h2V19h-1l-6 28v3.12h1.85v1.86H304v-2h4V4h-4V2h19v2h-2v30h1l6-27V3.9h-2V2h19v2h-4v46.12h4zM292 4v46h4v1.98h-22V50h4V4c-7.07 0-9 8.94-9 14.93h-1V2h34v16.93h-1C301 12.06 298.9 4 292 4zm-41.17 49.98c-11.63 0-17.39-15.1-17.39-26.96 0-14.27 7.1-26.9 17.4-26.9 2.01 0 5.62.73 8 3.78l4.22-3.9h.94v18.93h-.94c-1.16-8.1-5.48-17.03-10-17.03-4.99 0-5.06 9.5-5.06 12.97v23.02c0 2.2.24 13.09 5.97 13.09 5.8 0 9.1-10.38 10.03-16.98h1c-.42 8.44-4.4 19.98-14.17 19.98zm-38.79 0c-11.58 0-17.4-14.58-17.4-26.94 0-12.36 5.82-26.94 17.4-26.94 11.58 0 17.39 14.58 17.39 26.94 0 12.36-5.8 26.94-17.39 26.94zM215 6c0-3.06-1.3-4.1-2.96-4.1S209 2.94 209 6v42c0 3.05 1.38 3.98 3.04 3.98 1.66 0 2.96-.93 2.96-3.98V6zm-43 44.12h3V12h-1l-9 40-1.62-.02L155 12h-1v32.97c0 4 2.03 5.15 3.6 5.15h1.4v1.86h-12v-1.86c1.8 0 5.05-.32 5.05-5.1L152 4h-4V2h18l4 17 4-17h19v2h-4v46.12h4v1.86h-21v-1.86zm-42.96 2.86c-11.58 0-17.4-13.58-17.4-25.94 0-12.36 5.82-25.94 17.4-25.94 11.58 0 17.39 13.58 17.39 25.94 0 12.36-5.8 25.94-17.39 25.94zM132 6.43c0-3.05-1.3-3.53-2.96-3.53S126 3.38 126 6.43v41.23c0 3.05 1.38 3.32 3.04 3.32 1.66 0 2.96-.27 2.96-3.32V6.43zM99 52l-11.91-.02c-6.1 0-10.1 5-10.1 12.02h-1V49.98l4 .02c3.75-2.2 5-14.35 5-26.07V8.91c0-4.41-1-5-3-5h-3V2.04h31V3.9h-4.1l.11 46.07h5V64h-1c0-8.02-4.67-12-11-12zM92 3.9h-2.5c-1 0-2.5 1.05-2.5 4.96v15.08c0 7.91-1.17 20.69-3 25.06v1l8-.02V3.9zM41 50h4V4h-4V2h32v17.78h-1.2C70.3 3.9 62.34 3.84 59.83 3.84H59V25h2c3.93 0 5.93-5.83 5.79-10.92h1.2v23.18h-1.2c.14-5.07-1.8-10.26-5.8-10.26h-2v23c9.97.02 13-8.07 14-17h1v18.98H41V50zm-3-12.81c0 9.81-6.2 14.79-15.8 14.79H0v-2h4v-46H0V2h22c8.13 0 14 4.27 14 11 0 6.7-3.14 11.62-9.81 12.5v.72c5.75-.1 11.8 4.18 11.8 10.98zM24 9.89c0-6.28-2.63-5.88-3.93-5.88H18V25h2c1.3 0 4 .03 4-6.25V9.9zm1 23.02c0-6.3-3.7-5.91-5-5.91h-2v23.11h2.07c1.3 0 4.93.15 4.93-6.16V32.9z"/></svg>