<svg width="12px" height="12px" viewBox="0 0 12 12" xmlns="http://www.w3.org/2000/svg" xmlns:xlink="http://www.w3.org/1999/xlink">
    <g id="Page-1" stroke="none" stroke-width="1" fill="none" fill-rule="evenodd">
        <g id="clockIcon">
            <g id="time">
                <rect id="bounds" x="0" y="0" width="12" height="12"></rect>
                <g id="icon" fill="#B68A58">
                    <path d="M6,1.56521739 C3.55408696,1.56521739 1.56521739,3.55408696 1.56521739,6 C1.56521739,8.44591304 3.55408696,10.4347826 6,10.4347826 C8.44591304,10.4347826 10.4347826,8.44591304 10.4347826,6 C10.4347826,3.55408696 8.44591304,1.56521739 6,1.56521739 M6,12 C2.69113043,12 0,9.30886957 0,6 C0,2.69113043 2.69113043,0 6,0 C9.30886957,0 12,2.69113043 12,6 C12,9.30886957 9.30886957,12 6,12" id="Fill-1"></path>
                    <path d="M7.75,7 L5.75,7 C5.336,7 5,6.664 5,6.25 L5,4.25 C5,3.836 5.336,3.5 5.75,3.5 C6.164,3.5 6.5,3.836 6.5,4.25 L6.5,5.5 L7.75,5.5 C8.164,5.5 8.5,5.836 8.5,6.25 C8.5,6.664 8.164,7 7.75,7" id="Fill-3"></path>
                </g>
            </g>
        </g>
    </g>
</svg>
