<svg class="Logo-image" viewBox="0 0 600 126" xmlns="http://www.w3.org/2000/svg" xmlns:xlink="http://www.w3.org/1999/xlink"><g id="Page-1" stroke="none" stroke-width="1" fill="none" fill-rule="evenodd"><path d="M65.1847736,116.928 L93.6926924,126 L93.6926924,72.7941176 L93.6926924,54.768 L112.03112,54.768 L112.03112,116.928 L140.372326,126 L158.877466,100.8 L140.539039,100.8 L140.539039,39.48 L112.197833,29.568 L93.6926924,51.408 L93.6926924,39.48 L65.3514866,29.568 L46.8463462,51.408 L46.8463462,39.48 L18.5051404,29.568 L0,54.768 L18.3384274,54.768 L18.3384274,116.928 L46.8463462,126 L46.8463462,54.768 L65.1847736,54.768 L65.1847736,116.928 Z M371.269798,100.8 L371.269798,38.64 L342.761878,29.568 L342.761878,116.088 L371.103084,126 L389.608224,104.16 L389.608224,116.088 L417.94943,126 L436.45457,100.8 L418.116142,100.8 L418.116142,38.64 L389.608224,29.568 L389.608224,100.8 L371.269798,100.8 L371.269798,100.8 Z M581.661572,42 L553.820506,29.568 L520.811336,45.36 L553.820506,57.792 L508.474576,79.8 L508.474576,115.752 L536.982496,126 L553.820506,103.992 L553.820506,116.088 L582.328424,126 L600,100.632 L581.661572,100.632 L581.661572,42 L581.661572,42 Z M195.721033,126 L228.396776,112.896 L195.721033,100.632 L195.721033,82.992 L238.566268,62.16 L214.226174,29.568 L167.213114,52.248 L167.213114,113.736 L195.721033,126 L195.721033,126 Z M502.306196,98.784 L467.629898,88.2 L500.138928,46.536 L459.46096,29.568 L438.1217,56.784 L472.964712,67.536 L439.78883,109.032 L480.966934,126 L502.306196,98.784 L502.306196,98.784 Z M536.982496,100.8 L536.982496,75.936 L553.820506,67.872 L553.820506,100.8 L536.982496,100.8 L536.982496,100.8 Z M195.721033,45.864 L210.05835,65.688 L195.721033,72.576 L195.721033,45.864 L195.721033,45.864 Z M245.90164,113.736 L274.409558,126 L321.255904,107.184 L321.255904,32.76 L245.90164,0 L245.90164,29.016 L292.747986,47.664 L292.747986,107.352 L274.409558,100.632 L274.409558,48.216 L245.90164,57.288 L245.90164,113.736 L245.90164,113.736 Z" id="meduza-logo" fill="#B78B5C"></path></g></svg>
