<svg xmlns="http://www.w3.org/2000/svg" width="75" height="24" viewBox="0 0 75 24"><path d="M3.6 7.08v.38c.6-.74 1.23-1.28 1.88-1.63.65-.35 1.38-.52 2.2-.52 1 0 1.9.26 2.72.77.83.5 1.48 1.25 1.97 2.23.48.97.72 2.13.72 3.47 0 .98-.15 1.88-.43 2.7-.28.83-.66 1.52-1.14 2.08-.5.56-1.06 1-1.72 1.3-.65.3-1.36.44-2.12.44-.9 0-1.68-.2-2.3-.56-.62-.37-1.2-.9-1.77-1.6v4.8c0 1.4-.5 2.1-1.53 2.1-.6 0-1-.18-1.2-.55-.2-.37-.3-.9-.3-1.6V7.1c0-.6.14-1.06.4-1.36.28-.3.64-.45 1.1-.45.45 0 .82.14 1.1.45.3.3.44.75.44 1.33zm6.28 4.65c0-.84-.13-1.57-.4-2.17-.25-.6-.6-1.07-1.06-1.4-.46-.32-.97-.48-1.52-.48-.88 0-1.63.34-2.23 1.04-.6.7-.9 1.72-.9 3.07 0 1.26.3 2.25.9 2.96.6.7 1.34 1.06 2.23 1.06.53 0 1.02-.15 1.47-.46.46-.3.82-.77 1.1-1.4.27-.6.4-1.35.4-2.23zm8.87-4.63v9.25c0 .64-.15 1.12-.46 1.45-.3.33-.7.5-1.17.5-.46 0-.85-.17-1.14-.5-.3-.35-.45-.83-.45-1.45V7.2c0-.64.15-1.1.44-1.43.28-.32.67-.48 1.13-.48.47 0 .86.15 1.16.47.3.32.45.76.45 1.33zm-1.58-3.3c-.45 0-.83-.14-1.14-.4-.32-.3-.48-.67-.48-1.17 0-.46.16-.83.5-1.12.3-.3.7-.43 1.12-.43.4 0 .78.13 1.1.4.32.26.48.65.48 1.16 0 .5-.15.87-.47 1.15-.3.28-.68.42-1.1.42zm12.75 13.03L27.1 12.2l-1.73 1.63v2.54c0 .62-.17 1.1-.5 1.42-.3.33-.7.5-1.1.5-.5 0-.9-.17-1.17-.5-.28-.33-.42-.8-.42-1.45V2.7c0-.7.14-1.24.4-1.62.28-.37.67-.55 1.18-.55.5 0 .88.17 1.17.5.3.34.44.83.44 1.5v7.75l3.6-3.78c.44-.46.78-.8 1-.96.25-.17.53-.25.87-.25.4 0 .73.1 1 .37.26.25.4.57.4.95 0 .47-.44 1.1-1.3 1.88l-1.7 1.55 3.27 5.16c.26.4.43.68.54.88.1.2.15.4.15.57 0 .5-.14.9-.42 1.2-.28.3-.64.44-1.1.44-.4 0-.7-.1-.9-.32-.2-.2-.5-.6-.86-1.15zm12.87-.34c-.8.6-1.54 1.04-2.26 1.34-.72.3-1.53.45-2.43.45-.8 0-1.53-.17-2.15-.5-.62-.32-1.1-.76-1.44-1.3-.32-.57-.5-1.17-.5-1.82 0-.87.3-1.62.84-2.23.56-.62 1.32-1.04 2.3-1.25l1.5-.3 2.07-.46c.58-.14 1.2-.3 1.88-.5-.04-.85-.2-1.47-.5-1.86-.32-.4-.94-.6-1.88-.6-.82 0-1.43.12-1.84.35-.4.22-.76.56-1.05 1.02l-.6.9c-.13.14-.4.2-.8.2-.35 0-.66-.1-.92-.33-.27-.24-.4-.53-.4-.9 0-.55.2-1.1.6-1.63.4-.54 1.02-.98 1.86-1.32.85-.35 1.9-.52 3.16-.52 1.4 0 2.5.17 3.3.5.82.33 1.4.86 1.72 1.58.33.7.5 1.67.5 2.86v1.9l-.03 1.75c0 .6.1 1.23.3 1.88.2.65.3 1.07.3 1.26 0 .32-.16.62-.47.9-.3.26-.66.4-1.05.4-.33 0-.65-.16-.97-.47-.3-.3-.65-.76-1-1.34zm-.22-4.64c-.47.17-1.16.35-2.05.54l-1.86.43c-.34.1-.67.26-.98.52-.32.27-.48.63-.48 1.1 0 .48.18.9.55 1.24.37.33.85.5 1.44.5.64 0 1.23-.14 1.76-.42.54-.28.93-.64 1.18-1.07.3-.48.44-1.27.44-2.38v-.46zm8.92-9.5v4.88c.6-.62 1.2-1.1 1.84-1.43.62-.33 1.4-.5 2.32-.5 1.06 0 2 .26 2.8.76.8.5 1.42 1.24 1.86 2.2.44.95.66 2.1.66 3.4 0 .97-.12 1.86-.37 2.67-.24.8-.6 1.5-1.06 2.1-.47.6-1.04 1.05-1.7 1.38-.68.33-1.4.5-2.22.5-.5 0-.95-.07-1.4-.18-.42-.12-.8-.27-1.1-.47-.3-.2-.56-.38-.77-.6-.22-.2-.5-.5-.85-.9v.3c0 .62-.15 1.07-.44 1.38-.28.3-.65.46-1.1.46-.45 0-.8-.16-1.08-.47-.27-.3-.4-.76-.4-1.37V2.5c0-.65.13-1.14.4-1.47.25-.34.6-.5 1.08-.5.5 0 .87.16 1.14.47.27.32.4.77.4 1.36zm.15 9.5c0 1.27.3 2.25.87 2.93.6.68 1.35 1.02 2.3 1.02.8 0 1.5-.35 2.07-1.05.58-.7.87-1.7.87-3 0-.85-.12-1.57-.37-2.18-.24-.62-.58-1.1-1.03-1.43-.44-.33-.96-.5-1.56-.5-.6 0-1.14.17-1.6.5-.5.34-.87.82-1.14 1.45-.27.62-.4 1.37-.4 2.24zm20.1 4.63v-.42c-.38.48-.78.9-1.2 1.22-.43.33-.9.57-1.4.73-.5.16-1.06.24-1.7.24-.77 0-1.46-.16-2.08-.48-.6-.33-1.08-.77-1.42-1.34-.4-.67-.6-1.65-.6-2.92V7.2c0-.65.15-1.12.44-1.44.27-.32.66-.47 1.13-.47.5 0 .88.15 1.18.47.3.32.45.8.45 1.43v5.12c0 .74.06 1.36.2 1.87.1.5.34.88.66 1.17.34.28.78.43 1.33.43.54 0 1.05-.16 1.52-.48.48-.32.83-.74 1.05-1.26.18-.45.27-1.44.27-2.97V7.2c0-.64.14-1.1.44-1.43.3-.32.7-.48 1.17-.48.48 0 .86.14 1.15.46.3.32.43.8.43 1.44v9.26c0 .6-.13 1.07-.4 1.38-.3.3-.65.45-1.08.45-.44 0-.8-.17-1.1-.48-.27-.32-.42-.76-.42-1.33z" fill="#fff" fill-rule="evenodd"/></svg>