<svg xmlns="http://www.w3.org/2000/svg" width="92" height="34"><defs><linearGradient id="a" x1=".075%" x2="100.108%" y1="50.104%" y2="50.104%"><stop offset="0%" stop-color="#8574B4"/><stop offset="100%" stop-color="#305F83"/></linearGradient><linearGradient id="b" x1="-.183%" x2="99.923%" y1="50.069%" y2="50.069%"><stop offset="0%" stop-color="#2D6785"/><stop offset="100%" stop-color="#499E63"/></linearGradient><linearGradient id="c" x1=".01%" x2="100.002%" y1="49.938%" y2="49.938%"><stop offset="0%" stop-color="#96A239"/><stop offset="100%" stop-color="#AC7129"/></linearGradient><linearGradient id="d" x1="-.014%" x2="99.968%" y1="50.117%" y2="50.117%"><stop offset="0%" stop-color="#D97A29"/><stop offset="100%" stop-color="#A42774"/></linearGradient><linearGradient id="e" x1="-.09%" x2="99.848%" y1="49.952%" y2="49.952%"><stop offset="0%" stop-color="#5ACAEE"/><stop offset="100%" stop-color="#3492CD"/></linearGradient><linearGradient id="f" x1=".039%" x2="99.898%" y1="50.26%" y2="50.26%"><stop offset="0%" stop-color="#D4DF4C"/><stop offset="100%" stop-color="#93C83F"/></linearGradient><linearGradient id="g" x1="-.076%" x2="99.96%" y1="50.069%" y2="50.069%"><stop offset="0%" stop-color="#F8D10B"/><stop offset="100%" stop-color="#F89C1E"/></linearGradient><linearGradient id="h" x1="24.258%" x2="76.983%" y1="50.097%" y2="50.097%"><stop offset="0%" stop-color="#EF4676"/><stop offset="100%" stop-color="#EF4676"/></linearGradient></defs><g fill="none" fill-rule="evenodd"><path fill="url(#a)" d="M12.802.187s10.52 2.746 11.373 2.986c.88.213.714.453.714.453l-2.143 5.306L12.802.187z" transform="translate(.168 .736)"/><path fill="url(#b)" d="M10 4.746c.274-.587.96-.88 1.593-.667 0 0 19.587 6.558 20.41 6.798.826.24.716.453.716.453l-2.172 5.2c-.082.24-.384.347-.604.267 0 0-20.63-6.586-21.373-6.8-.74-.24-.686-.48-.686-.48L10 4.748z" transform="translate(.168 .736)"/><path fill="url(#c)" d="M2.143 12.158c.11-.294.467-.454.77-.374 0 0 24.01 6.506 24.833 6.72.825.24.715.452.715.452l-1.84 4.88c-.22.586-.907.933-1.538.746 0 0-23.516-6.692-24.285-6.932-.77-.213-.715-.453-.715-.453l2.06-5.04z" transform="translate(.168 .736)"/><path fill="url(#d)" d="M6.21 20.183c.246-.587.905-.827 1.482-.533 0 0 12.143 6.08 12.967 6.452.823.4.713.56.713.56l-1.813 4.72c-.22.585-.88.825-1.456.56 0 0-12.253-6.054-13.077-6.453-.824-.4-.714-.588-.714-.588l1.896-4.72z" transform="translate(.168 .736)"/><path fill="url(#e)" d="M9.78 4.373c.11-.294.467-.534.797-.534H24.23c.632 0 .714-.24.714-.24L23.02 8.717c-.11.294-.466.534-.795.534 0 0-12.995-.027-13.654 0-.658.026-.713.24-.713.24l1.923-5.12z" transform="translate(.168 .736)"/><path fill="url(#f)" d="M1.95 12.05c.11-.292.468-.532.797-.532h29.285c.714 0 .714-.24.714-.24l-1.84 5.12c-.11.292-.467.532-.797.532H.796c-.715 0-.715.24-.715.24l1.868-5.12z" transform="translate(.168 .736)"/><path fill="url(#g)" d="M6.21 19.756c.108-.293.466-.533.795-.533h20.74c.716 0 .716-.24.716-.24l-1.895 5.12c-.11.292-.467.532-.797.532H5.055c-.714 0-.714.24-.714.24l1.87-5.12z" transform="translate(.168 .736)"/><path fill="url(#h)" d="M14.258 26.928h6.4c.715 0 .715-.24.715-.24l-1.95 5.12c-.11.293-.468.533-.797.533h-6.51l2.142-5.412z" transform="translate(.168 .736)"/><path fill="#3A3A39" d="M84.78 22.28c-1.263 0-1.95-.72-1.95-2 0-1.547 1.07-2.294 3.214-2.294h1.374v2.667c-.605 1.066-1.456 1.626-2.638 1.626zm5.934-7.066c0-2.906-1.62-4.533-5.274-4.533-1.566 0-3.297.32-5 .934l.77 2.16c1.372-.453 2.69-.693 3.625-.693 1.758 0 2.583.56 2.583 2.294v.746h-1.704c-4.01 0-6.263 1.547-6.263 4.4 0 2.4 1.677 4.052 4.45 4.052 1.65 0 3.133-.56 4.094-1.973.55 1.28 1.54 1.785 3.05 1.92l.714-2.108c-.687-.24-1.044-.613-1.044-1.706v-5.492zm-14.148-4.16h-9.67l-.467 5.733c-.33 4.186-.495 4.72-2.144 5.385l.825 2.373c3.462-.853 3.956-2.4 4.423-7.518l.33-3.546h3.38v10.745h3.323v-13.17zM56.65 22.2c-1.786 0-2.665-1.574-2.665-4.56 0-3.12.906-4.506 2.692-4.506 1.785 0 2.692 1.52 2.692 4.506 0 2.96-.77 4.56-2.72 4.56zm0-11.52c-3.435 0-5.495 2.347-5.962 5.68h-2.143v-5.306H45.22v13.17h3.325V18.68h2.088c.385 3.572 2.527 5.92 5.99 5.92 3.872 0 6.152-2.988 6.152-6.96.028-4.346-2.39-6.96-6.126-6.96z"/></g></svg>