<svg xmlns="http://www.w3.org/2000/svg" xmlns:x="http://www.w3.org/1999/xlink" width="24" height="24"><defs><path id="a" d="M10 0c.515 0 1 .479 1 1v.339h5.167c.342 0 .661.177.844.47l2.734 4.34c.166.265.255.573.255.887v4.206a.948.948 0 0 1-.271.665.92.92 0 0 1-.657.274h-1.155A2.516 2.516 0 0 1 15.512 14a2.488 2.488 0 0 1-2.407-1.827H7.082A2.516 2.516 0 0 1 4.665 14a2.488 2.488 0 0 1-2.408-1.827H.928a.92.92 0 0 1-.657-.275.943.943 0 0 1-.271-.665V.943C0 .693.1.452.276.274A.927.927 0 0 1 .941 0H10zm5.512 12.74a1.281 1.281 0 0 0 1.253-1.268 1.265 1.265 0 0 0-1.253-1.268 1.281 1.281 0 0 0-1.253 1.268c.002.7.562 1.266 1.253 1.268zm-1.629-6.562a.23.23 0 0 0 .23.23h3.675a.23.23 0 0 0 .2-.12.235.235 0 0 0-.007-.237l-1.929-3.068a.23.23 0 0 0-.193-.108h-1.746a.231.231 0 0 0-.23.233v3.07zM4.665 12.74c.692 0 1.254-.568 1.254-1.269 0-.7-.562-1.269-1.254-1.269a1.281 1.281 0 0 0-1.253 1.268c0 .7.56 1.268 1.253 1.27z"/></defs><g fill="none" fill-rule="evenodd"><g transform="translate(2 5)"><use fill="#597A9E" x:href="#a"/><use fill="#000" fill-opacity=".1" x:href="#a"/></g><path fill="#000" fill-opacity=".1" d="M2 5.997c0-.55.445-.997.996-.997h9.008a1 1 0 0 1 .996.997V13H2V5.997z"/></g></svg>