<svg xmlns="http://www.w3.org/2000/svg" xmlns:x="http://www.w3.org/1999/xlink" width="24" height="24"><defs><path id="a" d="M20.823 4.292L11.94 2.103l-8.882 2.19v9.145c0 3.35 2.208 6.311 5.452 7.312l3.43 1.056 3.431-1.056c3.244-1 5.452-3.962 5.452-7.312V4.292z"/></defs><g fill="none" fill-rule="evenodd"><use fill="#4EB32F" x:href="#a"/><use fill="#000" fill-opacity=".1" x:href="#a"/><path fill="#000" d="M15.371 20.746c3.244-1.004 5.452-3.977 5.452-7.34V4.225H13.05c-.613 0-1.11.492-1.11 1.099v16.482l3.43-1.06z" opacity=".1"/><path fill="#000" d="M11.507 15.056L8.04 11.544a.278.278 0 0 1 0-.392l1.156-1.17a.27.27 0 0 1 .387 0l2.121 2.148 4.433-4.49a.27.27 0 0 1 .387 0l1.156 1.171a.278.278 0 0 1 0 .392l-5.785 5.853a.27.27 0 0 1-.387 0z" opacity=".2"/><path fill="#fff" d="M10.596 15.058l-3.475-3.512a.278.278 0 0 1 0-.392l1.158-1.171a.272.272 0 0 1 .388 0l2.126 2.148 4.443-4.49a.272.272 0 0 1 .388 0l1.136 1.17a.278.278 0 0 1 0 .393l-5.781 5.854a.271.271 0 0 1-.383 0z"/></g></svg>